<svg width="40" height="37" viewBox="0 0 40 37" fill="none" xmlns="http://www.w3.org/2000/svg">
<path d="M38.9068 18.4615C38.9068 28.3571 30.447 36.4231 19.9556 36.4231C9.46422 36.4231 1.00439 28.3571 1.00439 18.4615C1.00439 8.56594 9.46422 0.5 19.9556 0.5C30.447 0.5 38.9068 8.56594 38.9068 18.4615Z" stroke="#A59568"/>
<path d="M19.9556 9.38047C23.0718 9.38047 23.4409 9.39178 24.6716 9.44507C25.8094 9.49431 26.4274 9.67476 26.8386 9.82646C27.3834 10.0274 27.7722 10.2674 28.1806 10.655C28.589 11.0427 28.8419 11.4117 29.0536 11.9287C29.2134 12.319 29.4035 12.9055 29.4554 13.9855C29.5116 15.1535 29.5235 15.5039 29.5235 18.4615C29.5235 21.4192 29.5116 21.7695 29.4554 22.9375C29.4035 24.0175 29.2134 24.604 29.0536 24.9944C28.8419 25.5114 28.589 25.8804 28.1806 26.268C27.7722 26.6556 27.3834 26.8957 26.8386 27.0966C26.4274 27.2483 25.8094 27.4287 24.6716 27.478C23.4411 27.5313 23.072 27.5426 19.9556 27.5426C16.8391 27.5426 16.4701 27.5313 15.2396 27.478C14.1017 27.4287 13.4838 27.2483 13.0725 27.0966C12.5278 26.8957 12.139 26.6556 11.7306 26.268C11.3222 25.8804 11.0693 25.5114 10.8576 24.9944C10.6977 24.604 10.5076 24.0175 10.4557 22.9375C10.3996 21.7695 10.3877 21.4192 10.3877 18.4615C10.3877 15.5039 10.3996 15.1535 10.4557 13.9855C10.5076 12.9055 10.6977 12.319 10.8576 11.9287C11.0693 11.4117 11.3222 11.0427 11.7306 10.6551C12.139 10.2674 12.5278 10.0274 13.0725 9.82646C13.4838 9.67476 14.1017 9.49431 15.2396 9.44507C16.4702 9.39178 16.8394 9.38047 19.9556 9.38047ZM19.9556 7.38464C16.786 7.38464 16.3886 7.39739 15.1438 7.4513C13.9015 7.50508 13.0532 7.69234 12.3108 7.96614C11.5434 8.24922 10.8925 8.62798 10.2437 9.24377C9.59484 9.85961 9.19578 10.4773 8.89757 11.2057C8.60905 11.9103 8.41174 12.7155 8.35508 13.8945C8.29829 15.076 8.28485 15.4532 8.28485 18.4615C8.28485 21.4698 8.29829 21.847 8.35508 23.0285C8.41174 24.2075 8.60905 25.0127 8.89757 25.7173C9.19578 26.4457 9.59484 27.0634 10.2437 27.6793C10.8925 28.2951 11.5434 28.6738 12.3108 28.9569C13.0532 29.2307 13.9015 29.418 15.1438 29.4718C16.3886 29.5257 16.786 29.5384 19.9556 29.5384C23.1252 29.5384 23.5226 29.5257 24.7674 29.4718C26.0096 29.418 26.858 29.2307 27.6004 28.9569C28.3678 28.6738 29.0187 28.2951 29.6675 27.6793C30.3163 27.0634 30.7154 26.4457 31.0136 25.7173C31.3021 25.0127 31.4994 24.2075 31.5561 23.0285C31.6129 21.847 31.6263 21.4698 31.6263 18.4615C31.6263 15.4532 31.6129 15.076 31.5561 13.8945C31.4994 12.7155 31.3021 11.9103 31.0136 11.2057C30.7154 10.4773 30.3163 9.85961 29.6675 9.24377C29.0187 8.62798 28.3678 8.24922 27.6004 7.96614C26.858 7.69234 26.0096 7.50508 24.7674 7.4513C23.5226 7.39739 23.1252 7.38464 19.9556 7.38464Z" fill="#A59568"/>
<path d="M19.961 12.7786C16.6511 12.7786 13.9679 15.3252 13.9679 18.4667C13.9679 21.6082 16.6511 24.1548 19.961 24.1548C23.2709 24.1548 25.954 21.6082 25.954 18.4667C25.954 15.3252 23.2709 12.7786 19.961 12.7786ZM19.961 22.159C17.8124 22.159 16.0707 20.5059 16.0707 18.4667C16.0707 16.4275 17.8124 14.7744 19.961 14.7744C22.1095 14.7744 23.8512 16.4275 23.8512 18.4667C23.8512 20.5059 22.1095 22.159 19.961 22.159Z" fill="#A59568"/>
<path d="M27.3762 11.3293C27.3762 12.0633 26.7492 12.6585 25.9757 12.6585C25.2023 12.6585 24.5753 12.0633 24.5753 11.3293C24.5753 10.5951 25.2023 10 25.9757 10C26.7492 10 27.3762 10.5951 27.3762 11.3293Z" fill="#A59568"/>
</svg>
