<svg width="40" height="37" viewBox="0 0 40 37" fill="none" xmlns="http://www.w3.org/2000/svg">
<path d="M39.1781 18.4615C39.1781 28.3571 30.7183 36.4231 20.2269 36.4231C9.73552 36.4231 1.2757 28.3571 1.2757 18.4615C1.2757 8.56594 9.73552 0.5 20.2269 0.5C30.7183 0.5 39.1781 8.56594 39.1781 18.4615Z" stroke="#A59568"/>
<path fill-rule="evenodd" clip-rule="evenodd" d="M31.8976 11.3619C31.0395 11.7237 30.116 11.9674 29.1474 12.0774C30.1362 11.5147 30.8956 10.6242 31.2527 9.56312C30.3284 10.0844 29.3022 10.4618 28.2122 10.6663C27.3386 9.78317 26.093 9.23083 24.7167 9.23083C22.0723 9.23083 19.9281 11.2659 19.9281 13.7758C19.9281 14.1317 19.9709 14.4787 20.0526 14.8118C16.0724 14.6227 12.5442 12.8129 10.1822 10.063C9.76983 10.7342 9.53409 11.5148 9.53409 12.3477C9.53409 13.9242 10.3782 15.3154 11.6642 16.1306C10.8785 16.1069 10.1409 15.9024 9.49441 15.562V15.6188C9.49441 17.8215 11.1461 19.658 13.3354 20.0766C12.9339 20.18 12.5107 20.2361 12.0743 20.2361C11.7654 20.2361 11.4651 20.2073 11.1726 20.1542C11.7817 21.9596 13.5509 23.274 15.646 23.3109C14.0076 24.5293 11.9428 25.2566 9.69903 25.2566C9.31159 25.2566 8.93037 25.2352 8.55615 25.1924C10.6754 26.4816 13.1922 27.2348 15.8966 27.2348C24.7043 27.2348 29.5208 20.3092 29.5208 14.3037C29.5208 14.1066 29.5169 13.9102 29.5068 13.716C30.4435 13.0735 31.2558 12.2731 31.8976 11.3619Z" fill="#A59568"/>
</svg>
