<svg width="28" height="28" viewBox="0 0 28 28" fill="#62573C" xmlns="http://www.w3.org/2000/svg">
<path d="M19.5112 27.6409C20.7683 27.6409 21.7875 26.6217 21.7875 25.3646C21.7875 24.1074 20.7683 23.0883 19.5112 23.0883C18.254 23.0883 17.2349 24.1074 17.2349 25.3646C17.2349 26.6217 18.254 27.6409 19.5112 27.6409Z" fill="white"/>
<path d="M9.10517 27.6409C10.3623 27.6409 11.3815 26.6217 11.3815 25.3646C11.3815 24.1074 10.3623 23.0883 9.10517 23.0883C7.848 23.0883 6.82886 24.1074 6.82886 25.3646C6.82886 26.6217 7.848 27.6409 9.10517 27.6409Z" fill="white"/>
<path d="M4.66969 3.49901L4.40954 6.68585C4.35751 7.2972 4.83878 7.80449 5.45014 7.80449H25.3646C25.9109 7.80449 26.3662 7.38825 26.4052 6.84194C26.5743 4.53961 24.8183 2.66653 22.516 2.66653H6.52976C6.39968 2.09421 6.13953 1.54789 5.7363 1.09263C5.08593 0.403232 4.1754 0 3.23886 0H0.975561C0.442254 0 0 0.442255 0 0.975561C0 1.50887 0.442254 1.95112 0.975561 1.95112H3.23886C3.6421 1.95112 4.01931 2.12022 4.29247 2.40638C4.56563 2.70556 4.6957 3.09578 4.66969 3.49901Z" fill="white"/>
<path d="M26.4754 10H6.52194C5.97563 10 5.53338 10.4162 5.48135 10.9495L5.01308 16.6078C4.83097 18.8321 6.57397 20.7312 8.79825 20.7312H23.2626C25.2137 20.7312 26.9307 19.1313 27.0738 17.1801L27.503 11.1056C27.555 10.5073 27.0868 10 26.4754 10Z" fill="white"/>
</svg>
