<svg width="40" height="37" viewBox="0 0 40 37" fill="none" xmlns="http://www.w3.org/2000/svg">
<path d="M38.6355 18.4615C38.6355 28.3571 30.1756 36.4231 19.6843 36.4231C9.19286 36.4231 0.733032 28.3571 0.733032 18.4615C0.733032 8.56594 9.19286 0.5 19.6843 0.5C30.1756 0.5 38.6355 8.56594 38.6355 18.4615Z" stroke="#A59568"/>
<path fill-rule="evenodd" clip-rule="evenodd" d="M24.8535 11.9611C24.2472 11.846 23.4285 11.7601 22.9135 11.7601C21.5192 11.7601 21.4286 12.3354 21.4286 13.256V14.8949H24.9141L24.6103 18.2896H21.4286V28.6154H17.0645V18.2896H14.8215V14.8949H17.0645V12.7951C17.0645 9.91881 18.4888 8.30774 22.0648 8.30774C23.3072 8.30774 24.2166 8.48036 25.3984 8.71051L24.8535 11.9611Z" fill="#A59568"/>
</svg>
